 <svg
      width="117"
      height="133"
      viewBox="0 0 117 133"
      fill="none"
      xmlns="http://www.w3.org/2000/svg"
      style=""
      cursor='pointer'
    >
      <path
        d="M112.566 31.2777L112.572 31.2812C113.767 31.9671 114.759 32.9536 115.448 34.1411C116.137 35.3286 116.5 36.6754 116.5 38.0462V94.9538C116.5 96.3246 116.137 97.6714 115.448 98.8589C114.759 100.046 113.767 101.033 112.572 101.719L112.566 101.722L62.4296 131.453C62.4287 131.453 62.4278 131.454 62.4269 131.454C61.233 132.139 59.8787 132.5 58.5 132.5C57.1213 132.5 55.7671 132.139 54.5731 131.454C54.5722 131.454 54.5713 131.453 54.5704 131.453L4.43362 101.722L4.42757 101.719C3.23305 101.033 2.24143 100.046 1.55213 98.8589C0.862831 97.6714 0.500035 96.3246 0.5 94.9538V38.0462C0.500035 36.6754 0.862831 35.3286 1.55213 34.1411C2.24143 32.9536 3.23305 31.9671 4.42757 31.2812L4.42759 31.2812L4.4336 31.2776L54.5704 1.54726C54.5714 1.5467 54.5724 1.54614 54.5734 1.54558C55.7672 0.860664 57.1214 0.5 58.5 0.5C59.8786 0.5 61.2327 0.86064 62.4265 1.54551C62.4275 1.54609 62.4286 1.54667 62.4296 1.54726L112.566 31.2777ZM109.143 38.0462V37.7614L108.898 37.6162L58.755 7.88224L58.5 7.73102L58.245 7.88224L8.10212 37.6162L7.85714 37.7614V38.0462V94.9538V95.2386L8.10212 95.3839L58.245 125.118L58.5 125.269L58.755 125.118L108.898 95.3839L109.143 95.2386V94.9538V38.0462Z"
        stroke="#090E50"
        class="TvgfwFys_0"
      ></path>
      <path
        d="M72.43 89C71.6367 86.9 70.89 84.8467 70.19 82.84C69.49 80.7867 68.7667 78.71 68.02 76.61H46.04L41.63 89H34.56C36.4267 83.8667 38.1767 79.13 39.81 74.79C41.4433 70.4033 43.03 66.25 44.57 62.33C46.1567 58.41 47.72 54.6767 49.26 51.13C50.8 47.5367 52.41 43.99 54.09 40.49H60.32C62 43.99 63.61 47.5367 65.15 51.13C66.69 54.6767 68.23 58.41 69.77 62.33C71.3567 66.25 72.9667 70.4033 74.6 74.79C76.2333 79.13 77.9833 83.8667 79.85 89H72.43ZM66.06 71.01C64.5667 66.95 63.0733 63.03 61.58 59.25C60.1333 55.4233 58.6167 51.76 57.03 48.26C55.3967 51.76 53.8333 55.4233 52.34 59.25C50.8933 63.03 49.4467 66.95 48 71.01H66.06Z"
        fill="#090E50" stroke-width='2px' stroke='#090e50'
        class="TvgfwFys_1"
      ></path>
      <style data-made-with="vivus-instant">
        .TvgfwFys_0 {
          stroke-dasharray: 747 749;
          stroke-dashoffset: 748;
          animation: TvgfwFys_draw 3900ms linear 0ms forwards;
        }
        .TvgfwFys_1 {
          stroke-dasharray: 241 243;
          stroke-dashoffset: 242;
          fill: #090e50;
          opacity: 0;
          animation: TvgfwFys_draw 1.5s cubic-bezier(.19,.84,.83,.67) 1500ms forwards;
          animation: display_text 2000ms ease-in-out 1700ms forwards;
        }
        @keyframes display_text {
          70% {
            opacity: 1;
            transform: scale(1)
          }
        }
        @keyframes TvgfwFys_draw {
          80% {
            stroke-dashoffset: 0;
          }
        }
        @keyframes TvgfwFys_fade {
          0% {
            stroke-opacity: 1;
          }
          95.45454545454545% {
            stroke-opacity: 1;
          }
          100% {
            stroke-opacity: 0;
          }
        }
      </style>
    </svg>