<svg
      width="209"
      height="132"
      viewBox="0 0 209 132"
      fill="none"
      xmlns="http://www.w3.org/2000/svg"
      style="cursor: pointer"
    >
      <path
        width="186.453"
        height="113.455"
        stroke="#090E50"
        stroke-width="2"
        d="M 33.939,1 L 174.392,1 A 23,23,0,0,1,197.392,24 L 197.392,91.455 A 23,23,0,0,1,174.392,114.455 L 33.939,114.455 A 23,23,0,0,1,10.939,91.455 L 10.939,24 A 23,23,0,0,1,33.939,1"
        class="FLCZGuFo_0"
      ></path>
      <path
        width="179.697"
        height="107.141"
        stroke="#090E50"
        stroke-width="2"
        d="M 37.3333,4.33331 L 171.0303,4.33331 A 23,23,0,0,1,194.0303,27.33331 L 194.0303,88.47431 A 23,23,0,0,1,171.0303,111.47431 L 37.3333,111.47431 A 23,23,0,0,1,14.3333,88.47431 L 14.3333,27.33331 A 23,23,0,0,1,37.3333,4.33331"
        class="FLCZGuFo_1"
      ></path>
      <path
        d="M1 118.948H207.667V118.948C207.667 125.604 202.271 131 195.615 131H13.0519C6.39584 131 1 125.604 1 118.948V118.948Z"
        stroke="#090E50"
        stroke-width="2"
        class="FLCZGuFo_2"
      ></path>
      <path
        d="M89.6666 122.333H118.333V122.333C118.333 124.174 116.841 125.667 115 125.667H93C91.159 125.667 89.6666 124.174 89.6666 122.333V122.333Z"
        stroke="#090E50"
        stroke-width="2"
        class="FLCZGuFo_3"
      ></path>
      <path
        d="M123.5 76.5556L142.333 57.6667L123.5 38.7778M85.8333 38.7778L67 57.6667L85.8333 76.5556M112.2 23.6667L97.1333 91.6667"
        stroke="#090E50"
        stroke-width="4"
        stroke-linecap="round"
        stroke-linejoin="round"
        class="FLCZGuFo_4"
      ></path>
      <style data-made-with="vivus-instant">
        .FLCZGuFo_0 {
          stroke-dasharray: 561 563;
          stroke-dashoffset: 562;
          animation: FLCZGuFo_draw 700ms linear 0ms forwards;
        }
        .FLCZGuFo_1 {
          stroke-dasharray: 535 537;
          stroke-dashoffset: 536;
          animation: FLCZGuFo_draw 700ms linear 200ms forwards;
        }
        .FLCZGuFo_2 {
          stroke-dasharray: 428 430;
          stroke-dashoffset: 429;
          animation: FLCZGuFo_draw 700ms linear 400ms forwards;
        }
        .FLCZGuFo_3 {
          stroke-dasharray: 62 64;
          stroke-dashoffset: 63;
          animation: FLCZGuFo_draw 700ms linear 600ms forwards;
        }
        .FLCZGuFo_4 {
          stroke-dasharray: 177 179;
          stroke-dashoffset: 178;
          animation: FLCZGuFo_draw 700ms linear 800ms forwards;
        }
        @keyframes FLCZGuFo_draw {
          100% {
            stroke-dashoffset: 0;
          }
        }
        @keyframes FLCZGuFo_fade {
          0% {
            stroke-opacity: 1;
          }
          93.93939393939394% {
            stroke-opacity: 1;
          }
          100% {
            stroke-opacity: 0;
          }
        }
      </style>
    </svg>