<svg width="297" height="297" viewBox="0 0 297 297" fill="none" xmlns="http://www.w3.org/2000/svg" style="">
<path d="M67.078 187.484L67.1043 187.457L67.1295 187.43C67.2812 187.267 67.4641 187.136 67.6676 187.045C67.871 186.954 68.0907 186.905 68.3135 186.901C68.5363 186.897 68.7577 186.937 68.9644 187.021C69.1711 187.104 69.3588 187.228 69.5163 187.386C69.6739 187.543 69.7981 187.731 69.8815 187.938C69.9648 188.145 70.0057 188.366 70.0015 188.589C69.9974 188.812 69.9484 189.031 69.8574 189.235L69.8574 189.235C69.7664 189.438 69.6354 189.621 69.472 189.773L69.4431 189.799L69.4153 189.827L67.9873 191.262C67.676 191.562 67.2595 191.729 66.8266 191.727C66.39 191.724 65.9722 191.549 65.6637 191.24C65.3552 190.931 65.181 190.513 65.179 190.077C65.1769 189.643 65.345 189.226 65.647 188.915L67.078 187.484Z" stroke="#090E50" stroke-opacity="0.7" stroke-width="4" class="BvjdfFzT_0"></path>
<path d="M107.276 230.541L107.25 230.567L107.225 230.595C107.073 230.758 106.89 230.889 106.687 230.98C106.483 231.071 106.263 231.12 106.041 231.124L106.041 231.124C105.818 231.128 105.596 231.087 105.39 231.004L104.642 232.859L105.39 231.004C105.183 230.921 104.995 230.797 104.838 230.639L103.429 232.048L104.838 230.639C104.68 230.481 104.556 230.294 104.473 230.087C104.389 229.88 104.348 229.659 104.353 229.436C104.357 229.213 104.406 228.994 104.497 228.79C104.588 228.587 104.719 228.404 104.882 228.252L104.909 228.227L104.936 228.201L106.957 226.179L106.984 226.153L107.009 226.125C107.161 225.962 107.344 225.831 107.547 225.74C107.75 225.649 107.97 225.6 108.193 225.596C108.416 225.592 108.637 225.632 108.844 225.716C109.05 225.799 109.238 225.923 109.396 226.081C109.553 226.239 109.678 226.426 109.761 226.633L111.616 225.885L109.761 226.633C109.844 226.84 109.885 227.061 109.881 227.284L109.881 227.284C109.877 227.507 109.828 227.726 109.737 227.93C109.646 228.133 109.515 228.316 109.351 228.468L109.324 228.493L109.298 228.519L107.276 230.541Z" stroke="#090E50" stroke-opacity="0.7" stroke-width="4" class="BvjdfFzT_1"></path>
<path d="M31.4707 294.168L31.4696 294.175C25.6462 294.187 19.9501 292.47 15.1035 289.242C10.2544 286.012 6.47412 281.414 4.24247 276.031C2.01083 270.649 1.42837 264.725 2.56902 259.012C3.70966 253.298 6.52199 248.052 10.6491 243.939L10.6511 243.937L52.1613 202.453C52.4729 202.174 52.8789 202.023 53.2979 202.03C53.7268 202.038 54.1358 202.212 54.4391 202.516C54.7425 202.819 54.9164 203.228 54.9243 203.657C54.9321 204.076 54.781 204.482 54.502 204.793L13.0248 246.277C8.12755 251.174 5.37629 257.816 5.37629 264.742C5.37629 271.668 8.12755 278.31 13.0248 283.207C17.9221 288.105 24.5642 290.856 31.49 290.856C38.4158 290.856 45.0579 288.105 49.9552 283.207L91.4521 241.71C91.7637 241.432 92.1695 241.28 92.5884 241.288C93.0173 241.296 93.4264 241.47 93.7297 241.773C94.033 242.077 94.2069 242.486 94.2149 242.915C94.2226 243.334 94.0715 243.739 93.7925 244.051L52.2957 285.548L52.2918 285.552C49.5642 288.294 46.3193 290.468 42.7451 291.947C39.171 293.427 35.3388 294.181 31.4707 294.168Z" stroke="#090E50" stroke-opacity="0.7" stroke-width="4" class="BvjdfFzT_2"></path>
<mask id="path-4-inside-1_21_78" fill="white">
<path d="M44.8244 138.031C45.5204 138.034 46.2144 137.954 46.892 137.795C51.3543 136.768 63.1251 134.465 75.897 135.375C76.3812 135.418 76.8693 135.365 77.3327 135.218C77.7961 135.07 78.2254 134.832 78.5957 134.517C78.966 134.202 79.2697 133.816 79.4891 133.382C79.7085 132.949 79.8393 132.475 79.8736 131.99C79.908 131.505 79.8453 131.018 79.6893 130.558C79.5332 130.097 79.2869 129.673 78.9648 129.308C78.6426 128.944 78.2511 128.648 77.8131 128.437C77.3751 128.226 76.8994 128.104 76.4139 128.079C65.9518 127.448 55.4534 128.329 45.2432 130.696C44.953 130.764 44.6502 130.757 44.3638 130.674C44.0773 130.592 43.8169 130.437 43.6074 130.225C43.4384 130.061 43.3041 129.865 43.2124 129.648C43.1207 129.431 43.0734 129.198 43.0734 128.962C43.0734 128.727 43.1207 128.494 43.2124 128.277C43.3041 128.06 43.4384 127.864 43.6074 127.7C60.4817 111.682 78.4029 95.7569 87.5827 87.696C89.4942 86.003 91.7257 84.7104 94.1452 83.8945C96.5648 83.0786 99.1234 82.756 101.67 82.9458L130.119 84.9479L110.313 104.767L92.6012 122.478C90.0185 125.066 88.5679 128.572 88.5679 132.227C88.5679 135.883 90.0185 139.389 92.6012 141.976L96.6905 146.066L92.0581 150.698C90.4284 152.331 89.2375 154.348 88.5958 156.564C87.9541 158.779 87.8824 161.121 88.3875 163.372L77.5654 174.194C77.205 174.529 76.9158 174.932 76.715 175.381C76.5143 175.83 76.4061 176.315 76.397 176.807C76.3878 177.298 76.4779 177.787 76.6619 178.243C76.8458 178.699 77.1199 179.113 77.4676 179.461C77.8153 179.809 78.2296 180.083 78.6856 180.266C79.1417 180.45 79.6301 180.541 80.1218 180.531C80.6134 180.522 81.0982 180.414 81.5471 180.213C81.996 180.013 82.3998 179.723 82.7344 179.363L92.045 170.059L102.147 180.142C102.841 180.786 103.757 181.136 104.704 181.118C105.65 181.1 106.553 180.717 107.222 180.047C107.891 179.378 108.275 178.475 108.293 177.529C108.31 176.583 107.96 175.666 107.316 174.973L97.227 164.883C96.0296 163.685 95.357 162.06 95.357 160.365C95.357 158.671 96.0296 157.046 97.227 155.848L101.859 151.215L144.971 194.327L140.339 198.959C139.14 200.157 137.515 200.829 135.821 200.829C134.126 200.829 132.501 200.157 131.303 198.959L121.22 188.876C120.886 188.516 120.482 188.227 120.033 188.026C119.584 187.825 119.099 187.717 118.608 187.708C118.116 187.699 117.627 187.789 117.171 187.973C116.715 188.157 116.301 188.431 115.953 188.779C115.606 189.126 115.332 189.541 115.148 189.997C114.964 190.453 114.874 190.941 114.883 191.433C114.892 191.924 115 192.409 115.201 192.858C115.402 193.307 115.691 193.711 116.051 194.045L126.134 204.128L116.535 213.727C116.175 214.061 115.886 214.465 115.685 214.914C115.484 215.363 115.376 215.848 115.367 216.339C115.358 216.831 115.448 217.319 115.632 217.775C115.816 218.231 116.09 218.646 116.438 218.993C116.785 219.341 117.199 219.615 117.656 219.799C118.112 219.983 118.6 220.073 119.092 220.064C119.583 220.055 120.068 219.947 120.517 219.746C120.966 219.545 121.37 219.256 121.704 218.896L132.827 207.773C133.806 207.997 134.807 208.111 135.811 208.113C137.605 208.12 139.384 207.774 141.044 207.093C142.705 206.413 144.215 205.412 145.488 204.148L150.12 199.515L154.21 203.605C156.798 206.186 160.304 207.635 163.959 207.635C167.614 207.635 171.12 206.186 173.708 203.605L191.42 185.893C191.594 185.718 191.75 185.525 191.884 185.317C192.343 184.616 192.547 183.778 192.463 182.945C192.378 182.111 192.01 181.332 191.42 180.737L173.099 162.417C172.406 161.773 171.489 161.423 170.543 161.44C169.597 161.458 168.694 161.842 168.025 162.511C167.355 163.18 166.972 164.083 166.954 165.029C166.936 165.976 167.286 166.892 167.93 167.586L183.686 183.341L168.559 198.462C167.343 199.675 165.696 200.356 163.978 200.356C162.261 200.356 160.614 199.675 159.398 198.462L97.7701 136.834C96.5571 135.618 95.8758 133.971 95.8758 132.254C95.8758 130.536 96.5571 128.889 97.7701 127.673L112.897 112.546L152.031 151.667C152.366 152.027 152.769 152.316 153.218 152.517C153.667 152.718 154.152 152.826 154.644 152.835C155.135 152.844 155.624 152.754 156.08 152.57C156.536 152.386 156.95 152.112 157.298 151.764C157.645 151.417 157.919 151.002 158.103 150.546C158.287 150.09 158.377 149.602 158.368 149.11C158.359 148.619 158.251 148.134 158.05 147.685C157.85 147.236 157.56 146.832 157.2 146.498L118.06 107.351L182.783 42.6542C183.182 42.2485 223.604 2.57193 273.632 7.78668C277.43 8.15899 280.981 9.83704 283.68 12.5347C286.379 15.2324 288.058 18.7827 288.432 22.5803C293.667 72.621 253.97 113.037 253.565 113.436L200.521 166.48C200.141 166.809 199.833 167.213 199.617 167.666C199.4 168.119 199.279 168.612 199.261 169.115C199.243 169.617 199.329 170.117 199.513 170.585C199.698 171.052 199.976 171.477 200.332 171.832C200.687 172.187 201.112 172.465 201.58 172.648C202.048 172.832 202.548 172.917 203.05 172.899C203.552 172.88 204.045 172.759 204.498 172.542C204.951 172.324 205.355 172.016 205.683 171.636L211.278 166.041L213.28 194.536C213.466 197.082 213.141 199.64 212.326 202.059C211.51 204.478 210.219 206.71 208.529 208.623C200.455 217.783 184.53 235.737 168.526 252.592C168.364 252.763 168.17 252.901 167.954 252.995C167.738 253.09 167.505 253.139 167.27 253.141C167.034 253.15 166.799 253.109 166.581 253.021C166.362 252.933 166.164 252.8 166 252.631C165.789 252.421 165.634 252.161 165.552 251.875C165.469 251.588 165.462 251.286 165.529 250.995C167.714 241.49 168.629 231.736 168.251 221.99C168.171 221.047 167.73 220.172 167.018 219.548C166.307 218.924 165.381 218.6 164.436 218.644C163.491 218.688 162.6 219.097 161.949 219.784C161.299 220.472 160.941 221.384 160.949 222.331C161.298 231.409 160.443 240.493 158.404 249.347C158.096 250.677 158.092 252.06 158.392 253.392C158.693 254.724 159.29 255.971 160.14 257.041C160.99 258.11 162.07 258.974 163.3 259.567C164.53 260.161 165.878 260.469 167.243 260.47H167.361C168.573 260.456 169.77 260.199 170.881 259.714C171.991 259.228 172.993 258.524 173.826 257.643C189.915 240.697 205.886 222.69 214.019 213.465C216.333 210.814 218.101 207.734 219.224 204.4C220.347 201.065 220.801 197.542 220.562 194.032L218.115 159.204L258.727 118.638C260.461 116.897 301.256 75.4148 295.688 21.8606C295.108 16.4054 292.678 11.3132 288.802 7.4304C284.926 3.54762 279.839 1.10813 274.384 0.517437C220.824 -5.02446 179.341 35.7382 177.601 37.5048L136.982 78.1236C136.848 78.0921 136.713 78.0681 136.576 78.0516L102.246 75.6373C98.7353 75.3969 95.2122 75.851 91.8777 76.9737C88.5432 78.0965 85.4628 79.8657 82.8129 82.1802C73.5938 90.2804 55.5941 106.271 38.6348 122.374C37.3192 123.62 36.4075 125.233 36.0171 127.003C35.6267 128.773 35.7756 130.619 36.4446 132.303C37.1136 133.988 38.272 135.433 39.7703 136.453C41.2686 137.473 43.0381 138.02 44.8506 138.024L44.8244 138.031Z" class="BvjdfFzT_3"></path>
</mask>
<path d="M44.8244 138.031C45.5204 138.034 46.2144 137.954 46.892 137.795C51.3543 136.768 63.1251 134.465 75.897 135.375C76.3812 135.418 76.8693 135.365 77.3327 135.218C77.7961 135.07 78.2254 134.832 78.5957 134.517C78.966 134.202 79.2697 133.816 79.4891 133.382C79.7085 132.949 79.8393 132.475 79.8736 131.99C79.908 131.505 79.8453 131.018 79.6893 130.558C79.5332 130.097 79.2869 129.673 78.9648 129.308C78.6426 128.944 78.2511 128.648 77.8131 128.437C77.3751 128.226 76.8994 128.104 76.4139 128.079C65.9518 127.448 55.4534 128.329 45.2432 130.696C44.953 130.764 44.6502 130.757 44.3638 130.674C44.0773 130.592 43.8169 130.437 43.6074 130.225C43.4384 130.061 43.3041 129.865 43.2124 129.648C43.1207 129.431 43.0734 129.198 43.0734 128.962C43.0734 128.727 43.1207 128.494 43.2124 128.277C43.3041 128.06 43.4384 127.864 43.6074 127.7C60.4817 111.682 78.4029 95.7569 87.5827 87.696C89.4942 86.003 91.7257 84.7104 94.1452 83.8945C96.5648 83.0786 99.1234 82.756 101.67 82.9458L130.119 84.9479L110.313 104.767L92.6012 122.478C90.0185 125.066 88.5679 128.572 88.5679 132.227C88.5679 135.883 90.0185 139.389 92.6012 141.976L96.6905 146.066L92.0581 150.698C90.4284 152.331 89.2375 154.348 88.5958 156.564C87.9541 158.779 87.8824 161.121 88.3875 163.372L77.5654 174.194C77.205 174.529 76.9158 174.932 76.715 175.381C76.5143 175.83 76.4061 176.315 76.397 176.807C76.3878 177.298 76.4779 177.787 76.6619 178.243C76.8458 178.699 77.1199 179.113 77.4676 179.461C77.8153 179.809 78.2296 180.083 78.6856 180.266C79.1417 180.45 79.6301 180.541 80.1218 180.531C80.6134 180.522 81.0982 180.414 81.5471 180.213C81.996 180.013 82.3998 179.723 82.7344 179.363L92.045 170.059L102.147 180.142C102.841 180.786 103.757 181.136 104.704 181.118C105.65 181.1 106.553 180.717 107.222 180.047C107.891 179.378 108.275 178.475 108.293 177.529C108.31 176.583 107.96 175.666 107.316 174.973L97.227 164.883C96.0296 163.685 95.357 162.06 95.357 160.365C95.357 158.671 96.0296 157.046 97.227 155.848L101.859 151.215L144.971 194.327L140.339 198.959C139.14 200.157 137.515 200.829 135.821 200.829C134.126 200.829 132.501 200.157 131.303 198.959L121.22 188.876C120.886 188.516 120.482 188.227 120.033 188.026C119.584 187.825 119.099 187.717 118.608 187.708C118.116 187.699 117.627 187.789 117.171 187.973C116.715 188.157 116.301 188.431 115.953 188.779C115.606 189.126 115.332 189.541 115.148 189.997C114.964 190.453 114.874 190.941 114.883 191.433C114.892 191.924 115 192.409 115.201 192.858C115.402 193.307 115.691 193.711 116.051 194.045L126.134 204.128L116.535 213.727C116.175 214.061 115.886 214.465 115.685 214.914C115.484 215.363 115.376 215.848 115.367 216.339C115.358 216.831 115.448 217.319 115.632 217.775C115.816 218.231 116.09 218.646 116.438 218.993C116.785 219.341 117.199 219.615 117.656 219.799C118.112 219.983 118.6 220.073 119.092 220.064C119.583 220.055 120.068 219.947 120.517 219.746C120.966 219.545 121.37 219.256 121.704 218.896L132.827 207.773C133.806 207.997 134.807 208.111 135.811 208.113C137.605 208.12 139.384 207.774 141.044 207.093C142.705 206.413 144.215 205.412 145.488 204.148L150.12 199.515L154.21 203.605C156.798 206.186 160.304 207.635 163.959 207.635C167.614 207.635 171.12 206.186 173.708 203.605L191.42 185.893C191.594 185.718 191.75 185.525 191.884 185.317C192.343 184.616 192.547 183.778 192.463 182.945C192.378 182.111 192.01 181.332 191.42 180.737L173.099 162.417C172.406 161.773 171.489 161.423 170.543 161.44C169.597 161.458 168.694 161.842 168.025 162.511C167.355 163.18 166.972 164.083 166.954 165.029C166.936 165.976 167.286 166.892 167.93 167.586L183.686 183.341L168.559 198.462C167.343 199.675 165.696 200.356 163.978 200.356C162.261 200.356 160.614 199.675 159.398 198.462L97.7701 136.834C96.5571 135.618 95.8758 133.971 95.8758 132.254C95.8758 130.536 96.5571 128.889 97.7701 127.673L112.897 112.546L152.031 151.667C152.366 152.027 152.769 152.316 153.218 152.517C153.667 152.718 154.152 152.826 154.644 152.835C155.135 152.844 155.624 152.754 156.08 152.57C156.536 152.386 156.95 152.112 157.298 151.764C157.645 151.417 157.919 151.002 158.103 150.546C158.287 150.09 158.377 149.602 158.368 149.11C158.359 148.619 158.251 148.134 158.05 147.685C157.85 147.236 157.56 146.832 157.2 146.498L118.06 107.351L182.783 42.6542C183.182 42.2485 223.604 2.57193 273.632 7.78668C277.43 8.15899 280.981 9.83704 283.68 12.5347C286.379 15.2324 288.058 18.7827 288.432 22.5803C293.667 72.621 253.97 113.037 253.565 113.436L200.521 166.48C200.141 166.809 199.833 167.213 199.617 167.666C199.4 168.119 199.279 168.612 199.261 169.115C199.243 169.617 199.329 170.117 199.513 170.585C199.698 171.052 199.976 171.477 200.332 171.832C200.687 172.187 201.112 172.465 201.58 172.648C202.048 172.832 202.548 172.917 203.05 172.899C203.552 172.88 204.045 172.759 204.498 172.542C204.951 172.324 205.355 172.016 205.683 171.636L211.278 166.041L213.28 194.536C213.466 197.082 213.141 199.64 212.326 202.059C211.51 204.478 210.219 206.71 208.529 208.623C200.455 217.783 184.53 235.737 168.526 252.592C168.364 252.763 168.17 252.901 167.954 252.995C167.738 253.09 167.505 253.139 167.27 253.141C167.034 253.15 166.799 253.109 166.581 253.021C166.362 252.933 166.164 252.8 166 252.631C165.789 252.421 165.634 252.161 165.552 251.875C165.469 251.588 165.462 251.286 165.529 250.995C167.714 241.49 168.629 231.736 168.251 221.99C168.171 221.047 167.73 220.172 167.018 219.548C166.307 218.924 165.381 218.6 164.436 218.644C163.491 218.688 162.6 219.097 161.949 219.784C161.299 220.472 160.941 221.384 160.949 222.331C161.298 231.409 160.443 240.493 158.404 249.347C158.096 250.677 158.092 252.06 158.392 253.392C158.693 254.724 159.29 255.971 160.14 257.041C160.99 258.11 162.07 258.974 163.3 259.567C164.53 260.161 165.878 260.469 167.243 260.47H167.361C168.573 260.456 169.77 260.199 170.881 259.714C171.991 259.228 172.993 258.524 173.826 257.643C189.915 240.697 205.886 222.69 214.019 213.465C216.333 210.814 218.101 207.734 219.224 204.4C220.347 201.065 220.801 197.542 220.562 194.032L218.115 159.204L258.727 118.638C260.461 116.897 301.256 75.4148 295.688 21.8606C295.108 16.4054 292.678 11.3132 288.802 7.4304C284.926 3.54762 279.839 1.10813 274.384 0.517437C220.824 -5.02446 179.341 35.7382 177.601 37.5048L136.982 78.1236C136.848 78.0921 136.713 78.0681 136.576 78.0516L102.246 75.6373C98.7353 75.3969 95.2122 75.851 91.8777 76.9737C88.5432 78.0965 85.4628 79.8657 82.8129 82.1802C73.5938 90.2804 55.5941 106.271 38.6348 122.374C37.3192 123.62 36.4075 125.233 36.0171 127.003C35.6267 128.773 35.7756 130.619 36.4446 132.303C37.1136 133.988 38.272 135.433 39.7703 136.453C41.2686 137.473 43.0381 138.02 44.8506 138.024L44.8244 138.031Z" stroke="#090E50" stroke-opacity="0.7" stroke-width="8" mask="url(#path-4-inside-1_21_78)" class="BvjdfFzT_4"></path>
<path d="M240.773 55.3211L240.798 55.3482L240.825 55.3744C245.552 60.1032 248.526 66.3019 249.257 72.9482C249.988 79.5945 248.433 86.2915 244.847 91.935C241.261 97.5784 235.859 101.831 229.531 103.992C223.203 106.153 216.328 106.093 210.039 103.822C203.75 101.551 198.423 97.2044 194.936 91.4992C191.449 85.794 190.011 79.0708 190.858 72.4383C191.705 65.8058 194.787 59.66 199.596 55.0144C204.384 50.3899 210.597 47.5268 217.221 46.8919H217.23L217.319 46.8838C217.756 46.8446 218.19 46.9803 218.527 47.2612C218.863 47.5422 219.074 47.9452 219.113 48.3817C219.153 48.8183 219.017 49.2525 218.736 49.5889C218.455 49.9254 218.052 50.1364 217.615 50.1757L217.61 50.1762C211.698 50.7238 206.149 53.27 201.879 57.3947C197.608 61.5194 194.871 66.9764 194.118 72.8657C193.366 78.7551 194.643 84.7251 197.739 89.7912C200.835 94.8573 205.565 98.7171 211.149 100.734C216.733 102.751 222.838 102.804 228.457 100.886C234.075 98.9668 238.872 95.1905 242.056 90.1794C245.241 85.1683 246.622 79.2216 245.973 73.32C245.323 67.4184 242.682 61.9143 238.485 57.7154L238.458 57.689L238.431 57.6636C238.268 57.512 238.136 57.329 238.045 57.1255C237.954 56.9221 237.905 56.7024 237.901 56.4796C237.897 56.2568 237.938 56.0354 238.021 55.8288C238.105 55.6221 238.229 55.4343 238.386 55.2768C238.544 55.1192 238.732 54.995 238.938 54.9117C239.145 54.8283 239.366 54.7875 239.589 54.7916C239.812 54.7957 240.032 54.8448 240.235 54.9358C240.439 55.0267 240.622 55.1578 240.773 55.3211Z" stroke="#090E50" stroke-opacity="0.7" stroke-width="4" class="BvjdfFzT_5"></path>
<path d="M209.352 70.8512L210.58 72.4298L209.352 70.8512C209.181 70.9846 208.985 71.0829 208.775 71.1405C208.566 71.1982 208.347 71.214 208.131 71.187C207.916 71.1601 207.708 71.091 207.519 70.9837C207.33 70.8763 207.164 70.7328 207.031 70.5614L205.464 71.7801L207.031 70.5614C206.898 70.39 206.799 70.1939 206.742 69.9845C206.684 69.7751 206.668 69.5564 206.695 69.3408C206.722 69.1258 206.791 68.9182 206.898 68.7297C207.908 66.9611 209.264 65.4137 210.884 64.1795C212.505 62.9454 214.357 62.0497 216.33 61.5455C216.54 61.4926 216.759 61.4815 216.974 61.5129C217.189 61.5444 217.397 61.618 217.584 61.7295C217.771 61.841 217.934 61.9883 218.064 62.1629C218.194 62.3375 218.288 62.536 218.342 62.747C218.395 62.9581 218.406 63.1776 218.375 63.393C218.343 63.6084 218.27 63.8156 218.158 64.0025C218.047 64.1895 217.899 64.3527 217.725 64.4827C217.55 64.6128 217.352 64.7072 217.141 64.7605L217.14 64.7607C215.599 65.1506 214.152 65.8476 212.887 66.8099C211.622 67.7721 210.563 68.9798 209.776 70.3607L209.774 70.3632C209.667 70.552 209.523 70.7179 209.352 70.8512Z" stroke="#090E50" stroke-opacity="0.7" stroke-width="4" class="BvjdfFzT_6"></path>
<style data-made-with="vivus-instant">.BvjdfFzT_0{stroke-dasharray:15 17;stroke-dashoffset:16;animation:BvjdfFzT_draw 2666ms linear 0ms forwards;}.BvjdfFzT_1{stroke-dasharray:29 31;stroke-dashoffset:30;animation:BvjdfFzT_draw 2666ms linear 222ms forwards;}.BvjdfFzT_2{stroke-dasharray:420 422;stroke-dashoffset:421;animation:BvjdfFzT_draw 2666ms linear 444ms forwards;}.BvjdfFzT_3{stroke-dasharray:2172 2174;stroke-dashoffset:2173;animation:BvjdfFzT_draw 2666ms linear 666ms forwards;}.BvjdfFzT_4{stroke-dasharray:2172 2174;stroke-dashoffset:2173;animation:BvjdfFzT_draw 2666ms linear 888ms forwards;}.BvjdfFzT_5{stroke-dasharray:311 313;stroke-dashoffset:312;animation:BvjdfFzT_draw 2666ms linear 1111ms forwards;}.BvjdfFzT_6{stroke-dasharray:41 43;stroke-dashoffset:42;animation:BvjdfFzT_draw 2666ms linear 1333ms forwards;}@keyframes BvjdfFzT_draw{100%{stroke-dashoffset:0;}}@keyframes BvjdfFzT_fade{0%{stroke-opacity:1;}95.1219512195122%{stroke-opacity:1;}100%{stroke-opacity:0;}}</style></svg>
