<svg style='cursor: pointer;' width="43" height="48" viewBox="0 0 43 48" fill="none" xmlns="http://www.w3.org/2000/svg">
<path d="M40.6255 11.2882L40.6276 11.2894C41.0588 11.537 41.4166 11.893 41.6654 12.3216C41.9142 12.7502 42.0451 13.2362 42.0451 13.731V34.269C42.0451 34.7638 41.9142 35.2498 41.6654 35.6784C41.4166 36.107 41.0588 36.463 40.6276 36.7105L40.6255 36.7118L22.531 47.4416C22.5306 47.4418 22.5303 47.442 22.5299 47.4422C22.099 47.6894 21.6103 47.8195 21.1128 47.8195C20.6152 47.8195 20.1265 47.6894 19.6957 47.4422C19.6953 47.442 19.6949 47.4418 19.6946 47.4416L1.6001 36.7118L1.59792 36.7106C1.16681 36.463 0.808938 36.107 0.560166 35.6784C0.311398 35.2498 0.180464 34.7638 0.180451 34.269V13.731C0.180464 13.2362 0.311398 12.7502 0.560166 12.3216C0.808938 11.893 1.16681 11.537 1.59792 11.2894L1.59793 11.2895L1.6001 11.2882L19.6946 0.558409C19.695 0.558201 19.6953 0.557992 19.6957 0.557784C20.1265 0.31061 20.6153 0.180451 21.1128 0.180451C21.6103 0.180451 22.099 0.31061 22.5299 0.557784C22.5303 0.557992 22.5306 0.558201 22.531 0.558409L40.6255 11.2882ZM39.3899 13.731V13.6282L39.3015 13.5758L21.2048 2.84472L21.1128 2.79014L21.0207 2.84472L2.92407 13.5758L2.83566 13.6282V13.731V34.269V34.3718L2.92407 34.4242L21.0207 45.1553L21.1128 45.2099L21.2048 45.1553L39.3015 34.4242L39.3899 34.3718V34.269V13.731Z" fill="#090E50" stroke="#090E50" stroke-width="0.360902"/>
<path d="M26.1402 32.3008C25.8538 31.5429 25.5844 30.8018 25.3317 30.0776C25.0791 29.3365 24.8181 28.5871 24.5486 27.8292H16.616L15.0244 32.3008H12.4728C13.1465 30.4481 13.7781 28.7386 14.3675 27.1723C14.957 25.5892 15.5296 24.0902 16.0854 22.6755C16.6581 21.2608 17.2223 19.9134 17.7781 18.6334C18.3338 17.3365 18.9149 16.0565 19.5212 14.7934H21.7696C22.376 16.0565 22.957 17.3365 23.5128 18.6334C24.0686 19.9134 24.6244 21.2608 25.1802 22.6755C25.7528 24.0902 26.3338 25.5892 26.9233 27.1723C27.5128 28.7386 28.1444 30.4481 28.8181 32.3008H26.1402ZM23.8412 25.8081C23.3023 24.3429 22.7633 22.9281 22.2244 21.5639C21.7023 20.1829 21.1549 18.8608 20.5823 17.5976C19.9928 18.8608 19.4286 20.1829 18.8896 21.5639C18.3675 22.9281 17.8454 24.3429 17.3233 25.8081H23.8412Z" fill="#090E50"/>
</svg>
