<svg width="209" height="132" viewBox="0 0 209 132" fill="none" xmlns="http://www.w3.org/2000/svg" style="cursor: pointer">
<path width="186.453" height="113.455" stroke="#090E50" stroke-width="2" d="M 33.939,1 L 174.392,1 A 23,23,0,0,1,197.392,24 L 197.392,91.455 A 23,23,0,0,1,174.392,114.455 L 33.939,114.455 A 23,23,0,0,1,10.939,91.455 L 10.939,24 A 23,23,0,0,1,33.939,1" class="vmipLVPk_0"></path>
<path width="179.697" height="107.141" stroke="#090E50" stroke-width="2" d="M 37.3333,4.33331 L 171.0303,4.33331 A 23,23,0,0,1,194.0303,27.33331 L 194.0303,88.47431 A 23,23,0,0,1,171.0303,111.47431 L 37.3333,111.47431 A 23,23,0,0,1,14.3333,88.47431 L 14.3333,27.33331 A 23,23,0,0,1,37.3333,4.33331" class="vmipLVPk_1"></path>
<path d="M1 118.948H207.667V118.948C207.667 125.604 202.271 131 195.615 131H13.0519C6.39584 131 1 125.604 1 118.948V118.948Z" stroke="#090E50" stroke-width="2" class="vmipLVPk_2"></path>
<path d="M89.6666 122.333H118.333V122.333C118.333 124.174 116.841 125.667 115 125.667H93C91.159 125.667 89.6666 124.174 89.6666 122.333V122.333Z" stroke="#090E50" stroke-width="2" class="vmipLVPk_3"></path>
<path d="M135.476 54.8367L135.363 55.6588L136.15 55.9211C142.553 58.0555 146.995 64.0823 147 70.9999C146.806 79.6999 139.693 86.7935 130.799 86.7935H79.5971C68.8138 86.7935 60 77.9944 60 67.2327C60 59.696 64.3224 52.8715 70.9514 49.6606L71.4247 49.4314L71.504 48.9116C72.7558 40.715 79.7126 34.6669 88.0976 34.6669C90.7598 34.6669 93.4304 35.3678 95.7409 36.6172L96.4392 36.9948L96.9653 36.4004C101.114 31.7131 107.071 29 113.599 29C125.908 29 135.848 38.9255 135.848 51.1945C135.848 52.2182 135.722 53.1015 135.572 54.1516C135.541 54.3717 135.508 54.5991 135.476 54.8367ZM72.6787 50.824L72.6373 50.8373L72.5973 50.8542C65.9741 53.646 61.778 60.0422 61.778 67.2327C61.778 77.0321 69.7837 85.0155 79.5971 85.0155H130.799C138.722 85.0155 145.04 78.7228 145.04 70.829C145.04 64.1581 140.589 58.4885 134.1 57.0406C133.895 56.9696 133.667 56.8519 133.529 56.69C133.467 56.6163 133.423 56.5341 133.402 56.4276C133.381 56.3185 133.375 56.1338 133.463 55.8448L133.471 55.8207L133.477 55.7962C133.88 54.1825 134.07 52.4111 134.07 50.8312C134.07 39.542 124.919 30.4147 113.599 30.4147C107.241 30.4147 101.278 33.374 97.4916 38.3466L97.487 38.3526L97.4826 38.3586C97.2402 38.687 96.7376 38.7571 96.429 38.5293L96.3343 38.4594L96.226 38.4134C93.5194 37.2641 90.9243 36.4449 87.8978 36.4449C80.0148 36.4449 73.7174 42.3188 73.1148 50.1918L73.1118 50.2299V50.2682C73.1118 50.3799 73.0709 50.4948 72.9824 50.6043C72.8883 50.7205 72.7679 50.7952 72.6787 50.824Z" stroke="#090E50" stroke-width="2" class="vmipLVPk_4"></path>
<path d="M91.0592 57.37C91.0592 54.7227 88.8979 52.592 86.2631 52.592C83.622 52.592 81.4669 54.7471 81.4669 57.3881C81.4669 60.0354 83.6282 62.1661 86.2631 62.1661C89.2056 62.1661 91.602 64.5411 91.602 67.4687C91.602 70.4019 89.2181 72.7895 86.2631 72.7895C83.3243 72.7895 80.9241 70.4001 80.9241 67.4687C80.9241 67.3126 81.0394 67.1973 81.1955 67.1973C81.3516 67.1973 81.4669 67.3126 81.4669 67.4687C81.4669 70.116 83.6282 72.2467 86.2631 72.2467C88.8979 72.2467 91.0592 70.116 91.0592 67.4687C91.0592 64.8214 88.8979 62.6908 86.2631 62.6908C83.3243 62.6908 80.9241 60.3013 80.9241 57.37C80.9241 54.4368 83.308 52.0491 86.2631 52.0491C89.2019 52.0491 91.602 54.4386 91.602 57.37C91.602 57.526 91.4867 57.6414 91.3306 57.6414C91.1745 57.6414 91.0592 57.526 91.0592 57.37Z" stroke="#090E50" stroke-width="2" class="vmipLVPk_5"></path>
<path d="M97.1237 71.283V72.283H98.1237H107.133C107.289 72.283 107.404 72.3984 107.404 72.5544C107.404 72.7105 107.289 72.8259 107.133 72.8259H96.8522C96.6962 72.8259 96.5808 72.7105 96.5808 72.5544V52.3206C96.5808 52.1645 96.6962 52.0491 96.8522 52.0491H107.133C107.289 52.0491 107.404 52.1645 107.404 52.3206C107.404 52.4766 107.289 52.592 107.133 52.592H98.1237H97.1237V53.592V61.1661V62.1661H98.1237H107.133C107.289 62.1661 107.404 62.2814 107.404 62.4375C107.404 62.5936 107.289 62.7089 107.133 62.7089H98.1237H97.1237V63.7089V71.283Z" stroke="#090E50" stroke-width="2" class="vmipLVPk_6"></path>
<path d="M113.14 69.7554L113.14 69.7554L113.136 69.7508C111.734 67.8208 110.948 65.2373 110.948 62.4375C110.948 59.6433 111.75 57.0569 113.138 55.1218C114.622 53.0783 116.54 52.0491 118.521 52.0491C120.503 52.0491 122.421 53.079 123.905 55.1239L123.906 55.1242C125.308 57.0542 126.094 59.6377 126.094 62.4375C126.094 65.2317 125.292 67.818 123.904 69.7532C122.419 71.7979 120.519 72.8259 118.521 72.8259C116.519 72.8259 114.603 71.7945 113.14 69.7554ZM111.509 62.4193C111.509 65.0358 112.227 67.4489 113.441 69.2363C114.652 71.0186 116.43 72.2648 118.521 72.2648C120.612 72.2648 122.39 71.0186 123.601 69.2363C124.815 67.4489 125.533 65.0358 125.533 62.4193C125.533 59.8029 124.815 57.3897 123.601 55.6024C122.39 53.8201 120.612 52.5738 118.521 52.5738C116.436 52.5738 114.66 53.8275 113.448 55.6089C112.233 57.3972 111.509 59.8099 111.509 62.4193Z" stroke="#090E50" stroke-width="2" class="vmipLVPk_7"></path>
<style data-made-with="vivus-instant">.vmipLVPk_0{stroke-dasharray:561 563;stroke-dashoffset:562;animation:vmipLVPk_draw 1600ms linear 0ms forwards;}.vmipLVPk_1{stroke-dasharray:535 537;stroke-dashoffset:536;animation:vmipLVPk_draw 1600ms linear 114ms forwards;}.vmipLVPk_2{stroke-dasharray:428 430;stroke-dashoffset:429;animation:vmipLVPk_draw 1600ms linear 228ms forwards;}.vmipLVPk_3{stroke-dasharray:62 64;stroke-dashoffset:63;animation:vmipLVPk_draw 1600ms linear 342ms forwards;}.vmipLVPk_4{stroke-dasharray:475 477;stroke-dashoffset:476;animation:vmipLVPk_draw 1600ms linear 457ms forwards;}.vmipLVPk_5{stroke-dasharray:98 100;stroke-dashoffset:99;animation:vmipLVPk_draw 1600ms linear 571ms forwards;}.vmipLVPk_6{stroke-dasharray:104 106;stroke-dashoffset:105;animation:vmipLVPk_draw 1600ms linear 685ms forwards;}.vmipLVPk_7{stroke-dasharray:111 113;stroke-dashoffset:112;animation:vmipLVPk_draw 1600ms linear 800ms forwards;}@keyframes vmipLVPk_draw{100%{stroke-dashoffset:0;}}@keyframes vmipLVPk_fade{0%{stroke-opacity:1;}93.93939393939394%{stroke-opacity:1;}100%{stroke-opacity:0;}}</style></svg>
